<svg width="15" height="15" viewBox="0 0 15 15" fill="none" xmlns="http://www.w3.org/2000/svg">
<path d="M10.6681 14.7349C9.4886 14.3737 8.73758 14.0633 7.72171 13.5175C5.8568 12.5154 4.09246 11.0348 2.80839 9.39451C1.76878 8.06647 1.10865 6.99078 0.445935 5.54485C0.0784142 4.74299 0.041015 4.61279 0.0117162 4.0332C-0.0183682 3.43807 -0.00500151 3.36295 0.228626 2.81433C0.737712 1.61885 1.53329 0.74966 2.57319 0.252833C3.19744 -0.0454072 3.37846 -0.0693614 3.53058 0.126142C3.67127 0.306948 4.95493 4.19046 4.95493 4.4353C4.95493 4.66223 4.81842 4.76559 4.06707 5.1076C3.48934 5.37057 3.2935 5.58905 3.41985 5.82962C3.45387 5.89439 4.9034 7.20756 6.64103 8.74776C8.67089 10.547 9.85728 11.5481 9.95962 11.5481C10.1853 11.5481 10.3446 11.3428 10.3456 11.051C10.347 10.5944 10.4349 10.2061 10.5522 10.1378C10.6807 10.0629 10.9537 10.0287 12.7881 9.85766C14.5391 9.69438 14.7013 9.69905 14.8296 9.91642C14.887 10.0137 14.956 10.3432 14.9829 10.6485C15.0995 11.9716 14.6177 13.2152 13.5979 14.2232C12.7238 15.0873 12.1476 15.1879 10.6681 14.7349Z" fill="black"/>
</svg>
